<svg width="199" height="149" viewBox="0 0 199 149" fill="none" xmlns="http://www.w3.org/2000/svg">
<path d="M38.11 117.3C25.06 117.3 14.98 108.04 14.98 95.7501C14.98 82.1801 26.65 72.55 38.86 72.55C49.9 72.55 58.92 79.3401 59.34 90.7101H28.14C28.35 101.81 35.04 108.68 44.59 108.68C50.11 108.68 54.88 106.48 57.85 102.08L58.91 102.45C55.73 112.16 47.87 117.3 38.11 117.3ZM28.13 88.8701H45.64C45.53 78.2301 42.56 74.2001 38.11 74.2001C32.91 74.1901 28.67 79.7001 28.13 88.8701Z" fill="currentColor"/>
<path d="M55.26 117.46V116.63C58.66 116.35 62.16 114.8 62.16 109.39V87.38C62.16 81.69 58.55 80.23 54.41 80.41V79.58L75.95 74.35L76.8 74.63L76.59 85.82V109.39C76.59 114.8 80.2 116.36 83.7 116.63V117.46H55.26ZM69.16 53.17C74.15 53.17 78.07 56.47 78.07 60.69C78.07 64.73 74.14 68.12 69.16 68.12C64.38 68.12 60.46 64.73 60.46 60.69C60.46 56.47 64.39 53.17 69.16 53.17Z" fill="currentColor"/>
<path d="M73.3 132.96C73.3 125.44 79.88 119.48 88.26 116.82C82.1 112.6 77.22 107.74 77.22 100.95C77.22 92.15 86.35 85.36 98.55 85.36C110.65 85.36 118.5 91.23 118.5 98.29C118.5 103.61 113.94 108.84 105.77 112.14C114.15 117.18 122.64 122.69 122.64 131.4C122.64 140.75 112.98 149.01 97.81 149.01C81.68 149 73.3 141.58 73.3 132.96ZM110.34 138.09C110.34 131.76 104.29 126.9 94.32 120.67C93.15 119.94 91.88 119.2 90.71 118.47C87.42 120.85 85.4 125.35 85.4 131.49C85.4 141.67 90.92 147.45 99.09 147.45C105.77 147.44 110.34 143.68 110.34 138.09ZM103.65 110.85C105.99 108.65 107.26 104.89 107.26 100.21C107.26 92.05 103.23 86.82 97.07 86.82C92.51 86.82 88.58 89.94 88.58 94.89C88.58 101.68 95.8 106.18 103.65 110.85Z" fill="currentColor"/>
<path d="M141.42 117.32H114.57V116.49C117.97 116.21 121.36 114.66 121.36 109.25V61.1C121.36 55.41 117.86 54.04 113.83 54.22V53.3L134.95 48.26L135.8 48.54V81.46C140.26 77.33 146.62 74.03 153.2 74.03C160.95 74.03 165.93 77.97 165.93 85.59V109.25C165.93 114.66 169.33 116.22 172.83 116.49V117.32H145.88V116.59C149.38 116.31 151.5 114.48 151.5 109.07V88.07C151.5 82.11 149.16 79.63 144.92 79.63C141.84 79.63 138.45 81.28 135.79 83.67V109.07C135.79 114.76 138.13 116.31 141.41 116.59V117.32H141.42Z" fill="currentColor"/>
<path d="M185.14 76.21V104.18C185.14 108.4 187.26 110.32 190.45 110.32C192.89 110.32 195.01 109.22 197.14 106.56L198.2 107.2C193.74 113.99 187.69 117.47 181.75 117.47C174.96 117.47 170.71 112.88 170.71 106.92V76.3H163.92V75.29C172.3 73.27 180.58 65.29 183.66 56.03H185.15V74.46H196.93V76.2H185.14V76.21Z" fill="currentColor"/>
<path d="M33.01 61.94C29.72 66.71 24.2 70.65 17.73 70.65C8.07001 70.65 0.220001 62.67 0.220001 50.93C0.220001 36.53 12.32 25.89 25.26 25.89C28.02 25.89 30.57 26.44 32.69 27.54V12.96C32.69 7.27001 29.19 5.9 25.16 6.08V5.16L46.28 0.119995L47.13 0.399994V59.83C47.13 65.7 50 67.44 54.13 67.26V68.18L33.86 70.47L33.01 70.19V61.94ZM32.69 60.38V34.34C31.42 29.3 28.13 27.28 24.94 27.28C19.32 27.28 14.12 34.07 14.12 45.99C14.12 57.18 19 63.14 25.79 63.14C28.66 63.13 30.99 62.12 32.69 60.38Z" fill="currentColor"/>
<path d="M73.65 44.71C69.3 48.93 63.89 51.13 58.58 51.13C52 51.13 46.27 47.55 46.27 41.41C46.27 35.08 51.58 29.67 73.12 23.99V16.84C73.12 10.24 71.21 7.76001 67.6 7.76001C63.46 7.76001 63.25 10.97 61.76 16.11C60.7 19.78 57.94 21.52 54.76 21.52C51.26 21.52 48.71 19.32 48.71 16.2C48.71 10.88 55.5 6.39001 68.02 6.39001C81.39 6.39001 87.65 11.71 87.65 20.7V40.78C87.65 44.08 88.71 45.64 90.94 45.64C92.64 45.64 94.12 44.81 95.72 42.8L96.68 43.35C93.18 48.58 88.61 50.87 83.31 50.87C78.54 50.85 75.03 48.93 73.65 44.71ZM73.34 43.06C73.23 42.33 73.13 41.5 73.13 40.58V25.45C62.94 29.12 60.4 33.7 60.4 38.56C60.4 43.51 63.27 45.62 66.77 45.62C68.88 45.62 71.11 44.89 73.34 43.06Z" fill="currentColor"/>
<path d="M81.5 73.8499C81.5 70.2699 84.58 67.7999 88.29 67.7999C91.47 67.7999 93.38 69.4499 94.55 71.7399C95.82 73.9399 96.35 76.2299 98.58 76.2299C101.23 76.2299 104.42 72.7499 106.65 68.3399L110.68 60.3599L93.38 27.2499C90.41 21.5599 87.86 18.8099 84.57 18.1699V17.4399H113.54V18.1699C108.76 18.4499 106.64 22.0199 109.61 27.8899L118.42 45.4099L124.36 33.5799C128.82 24.9599 127.44 18.8199 120.22 18.1699V17.4399H140.59V18.1699C135.81 18.8099 132.52 22.8499 126.9 33.7599L108.75 69.0699C104.51 77.3199 98.03 80.8999 91.45 80.8999C86.06 80.9099 81.5 78.4299 81.5 73.8499Z" fill="currentColor"/>
</svg>
