<svg width="32" height="31" viewBox="0 0 32 31" fill="none" xmlns="http://www.w3.org/2000/svg">
<path d="M15.94 30.77C7.56 30.77 0.75 23.95 0.75 15.58C0.75 7.20996 7.57 0.390015 15.94 0.390015C24.32 0.390015 31.13 7.20996 31.13 15.58C31.13 23.95 24.32 30.77 15.94 30.77ZM15.94 1.16003C7.99 1.16003 1.51999 7.62996 1.51999 15.58C1.51999 23.53 7.99 30 15.94 30C23.89 30 30.36 23.53 30.36 15.58C30.36 7.62996 23.89 1.16003 15.94 1.16003Z" fill="white"/>
<path d="M15.94 8.92004C18.11 8.92004 18.36 8.92997 19.22 8.96997C20.01 9.00997 20.44 9.14 20.73 9.25C21.11 9.4 21.38 9.56999 21.66 9.85999C21.94 10.14 22.12 10.41 22.27 10.79C22.38 11.08 22.51 11.51 22.55 12.3C22.59 13.16 22.6 13.41 22.6 15.58C22.6 17.75 22.59 18 22.55 18.86C22.51 19.65 22.38 20.08 22.27 20.37C22.12 20.75 21.95 21.02 21.66 21.3C21.38 21.58 21.11 21.76 20.73 21.91C20.44 22.02 20.01 22.1499 19.22 22.1899C18.36 22.2299 18.11 22.24 15.94 22.24C13.77 22.24 13.52 22.2299 12.66 22.1899C11.87 22.1499 11.44 22.02 11.15 21.91C10.77 21.76 10.5 21.59 10.22 21.3C9.94 21.02 9.75999 20.75 9.60999 20.37C9.49999 20.08 9.36999 19.65 9.32999 18.86C9.28999 18 9.28 17.75 9.28 15.58C9.28 13.41 9.28999 13.16 9.32999 12.3C9.36999 11.51 9.49999 11.08 9.60999 10.79C9.75999 10.41 9.93 10.14 10.22 9.85999C10.5 9.57999 10.77 9.4 11.15 9.25C11.44 9.14 11.87 9.00997 12.66 8.96997C13.52 8.92997 13.78 8.92004 15.94 8.92004ZM15.94 7.45996C13.74 7.45996 13.46 7.47001 12.59 7.51001C11.73 7.55001 11.14 7.69001 10.62 7.89001C10.09 8.10001 9.62999 8.36996 9.17999 8.82996C8.72999 9.27996 8.44999 9.73002 8.23999 10.27C8.03999 10.79 7.89999 11.38 7.85999 12.24C7.81999 13.11 7.81 13.38 7.81 15.59C7.81 17.79 7.81999 18.0699 7.85999 18.9399C7.89999 19.7999 8.03999 20.39 8.23999 20.91C8.44999 21.44 8.71999 21.9 9.17999 22.35C9.62999 22.8 10.08 23.08 10.62 23.29C11.14 23.49 11.73 23.63 12.59 23.67C13.46 23.71 13.73 23.72 15.94 23.72C18.14 23.72 18.42 23.71 19.29 23.67C20.15 23.63 20.74 23.49 21.26 23.29C21.79 23.08 22.25 22.8 22.7 22.35C23.15 21.9 23.43 21.45 23.64 20.91C23.84 20.39 23.98 19.7999 24.02 18.9399C24.06 18.0699 24.07 17.8 24.07 15.59C24.07 13.39 24.06 13.11 24.02 12.24C23.98 11.38 23.84 10.79 23.64 10.27C23.43 9.74002 23.15 9.27996 22.7 8.82996C22.25 8.37996 21.8 8.10001 21.26 7.89001C20.74 7.69001 20.15 7.55001 19.29 7.51001C18.43 7.47001 18.15 7.45996 15.94 7.45996Z" fill="white"/>
<path d="M15.94 11.41C13.64 11.41 11.77 13.28 11.77 15.58C11.77 17.88 13.64 19.75 15.94 19.75C18.24 19.75 20.11 17.88 20.11 15.58C20.11 13.27 18.25 11.41 15.94 11.41ZM15.94 18.28C14.45 18.28 13.23 17.0699 13.23 15.5699C13.23 14.0799 14.44 12.86 15.94 12.86C17.43 12.86 18.65 14.0699 18.65 15.5699C18.65 17.0699 17.44 18.28 15.94 18.28Z" fill="white"/>
<path d="M21.25 11.24C21.25 11.78 20.81 12.21 20.28 12.21C19.74 12.21 19.31 11.77 19.31 11.24C19.31 10.7 19.75 10.27 20.28 10.27C20.82 10.27 21.25 10.7 21.25 11.24Z" fill="white"/>
</svg>
