<svg width="31" height="31" viewBox="0 0 31 31" fill="none" xmlns="http://www.w3.org/2000/svg">
<path d="M15.37 30.77C6.99 30.77 0.179993 23.95 0.179993 15.58C0.179993 7.20996 7 0.390015 15.37 0.390015C23.75 0.390015 30.56 7.20996 30.56 15.58C30.56 23.95 23.75 30.77 15.37 30.77ZM15.37 1.16003C7.42 1.16003 0.950012 7.62996 0.950012 15.58C0.950012 23.53 7.42 30 15.37 30C23.32 30 29.79 23.53 29.79 15.58C29.79 7.62996 23.32 1.16003 15.37 1.16003Z" fill="white"/>
<path d="M11.72 12.27H8.66V22.17H11.72V12.27Z" fill="white"/>
<path d="M10.18 10.98C11.18 10.98 11.99 10.16 11.99 9.15002C11.99 8.14002 11.18 7.31995 10.18 7.31995C9.17999 7.31995 8.37 8.14002 8.37 9.15002C8.37 10.16 9.16999 10.98 10.18 10.98Z" fill="white"/>
<path d="M16.62 16.98C16.62 15.59 17.26 14.76 18.49 14.76C19.62 14.76 20.16 15.56 20.16 16.98C20.16 18.41 20.16 22.1801 20.16 22.1801H23.21C23.21 22.1801 23.21 18.56 23.21 15.91C23.21 13.26 21.71 11.98 19.61 11.98C17.51 11.98 16.63 13.62 16.63 13.62V12.29H13.69V22.1899H16.63C16.62 22.1699 16.62 18.5 16.62 16.98Z" fill="white"/>
</svg>
