<svg width="31" height="31" viewBox="0 0 31 31" fill="none" xmlns="http://www.w3.org/2000/svg">
<path d="M15.52 30.77C7.13999 30.77 0.329987 23.95 0.329987 15.58C0.329987 7.20996 7.14999 0.390015 15.52 0.390015C23.9 0.390015 30.71 7.20996 30.71 15.58C30.71 23.95 23.9 30.77 15.52 30.77ZM15.52 1.16003C7.56999 1.16003 1.10001 7.62996 1.10001 15.58C1.10001 23.53 7.56999 30 15.52 30C23.47 30 29.94 23.53 29.94 15.58C29.94 7.62996 23.47 1.16003 15.52 1.16003Z" fill="white"/>
<path d="M7.63 20.53C9.06 21.45 10.76 21.98 12.59 21.98C18.6 21.98 21.99 16.9 21.79 12.35C22.42 11.89 22.97 11.32 23.4 10.67C22.82 10.93 22.2 11.1001 21.54 11.1801C22.21 10.7801 22.72 10.15 22.96 9.39001C22.33 9.76001 21.64 10.0301 20.91 10.1801C20.32 9.55005 19.48 9.16003 18.55 9.16003C16.46 9.16003 14.93 11.11 15.4 13.13C12.71 13 10.32 11.71 8.73001 9.75C7.88001 11.21 8.29001 13.1099 9.73001 14.0699C9.20001 14.0499 8.70001 13.91 8.26001 13.66C8.23001 15.16 9.29999 16.56 10.86 16.87C10.4 16.99 9.90999 17.0201 9.39999 16.9301C9.80999 18.2201 11.01 19.1501 12.42 19.1801C11.06 20.2601 9.35 20.73 7.63 20.53Z" fill="white"/>
</svg>
