<svg width="31" height="31" viewBox="0 0 31 31" fill="none" xmlns="http://www.w3.org/2000/svg">
<path d="M15.19 30.38C6.81 30.38 0 23.5599 0 15.1899C0 6.81994 6.82 0 15.19 0C23.57 0 30.38 6.81994 30.38 15.1899C30.38 23.5599 23.57 30.38 15.19 30.38ZM15.19 0.77002C7.24 0.77002 0.77002 7.23994 0.77002 15.1899C0.77002 23.1399 7.24 29.61 15.19 29.61C23.14 29.61 29.61 23.1399 29.61 15.1899C29.61 7.23994 23.14 0.77002 15.19 0.77002Z" fill="white"/>
<path d="M19.6009 8H22.0544L16.6943 14.1262L23 22.4625H18.062L14.1949 17.4066L9.77013 22.4625H7.31521L13.0483 15.9099L7 8H12.0619L15.5574 12.6213L19.6009 8ZM18.7399 20.994H20.0993L11.3239 9.39137H9.86506L18.7399 20.994Z" fill="white"/>
</svg>
