<svg width="128" height="128" viewBox="0 0 128 128" fill="none" xmlns="http://www.w3.org/2000/svg">
<circle cx="64" cy="64" r="64" fill="#24B6BC"/>
<path d="M32 84.743C32 74.9886 40.5351 67.2578 51.405 63.8075C43.4147 58.3336 37.0847 52.0296 37.0847 43.2222C37.0847 31.8075 48.9274 23 64.7523 23C80.4475 23 90.6299 30.6141 90.6299 39.7718C90.6299 46.6725 84.715 53.4564 74.1175 57.7369C84.9874 64.2744 96 71.4215 96 82.7195C96 94.8476 83.4698 105.562 63.7925 105.562C42.8699 105.549 32 95.9242 32 84.743ZM80.0454 91.3972C80.0454 83.1864 72.1978 76.8825 59.2655 68.8014C57.7479 67.8545 56.1005 66.8946 54.5829 65.9477C50.3154 69.0349 47.6952 74.8719 47.6952 82.8362C47.6952 96.0409 54.8553 103.538 65.4528 103.538C74.1175 103.525 80.0454 98.6481 80.0454 91.3972ZM71.3676 56.0636C74.4029 53.21 76.0503 48.3328 76.0503 42.2623C76.0503 31.6778 70.8229 24.8938 62.8326 24.8938C56.9177 24.8938 51.82 28.9409 51.82 35.3616C51.82 44.1691 61.1852 50.0061 71.3676 56.0636Z" fill="white"/>
</svg>
