<svg width="128" height="128" viewBox="0 0 128 128" fill="none" xmlns="http://www.w3.org/2000/svg">
<path d="M21 91.7581C21 78.5257 32.5784 68.0384 47.324 63.3577C36.4847 55.9321 27.8977 47.3804 27.8977 35.4326C27.8977 19.9479 43.9631 8 65.4305 8C86.7219 8 100.535 18.329 100.535 30.7519C100.535 40.1131 92.511 49.316 78.135 55.1228C92.8805 63.9912 107.82 73.6867 107.82 89.013C107.82 105.465 90.8219 120 64.1283 120C35.7457 119.983 21 106.926 21 91.7581ZM86.1764 100.785C86.1764 89.6465 75.5307 81.0948 57.9873 70.1323C55.9285 68.8478 53.6938 67.5457 51.6351 66.2611C45.8459 70.449 42.2915 78.3673 42.2915 89.1714C42.2915 107.084 52.0046 117.255 66.3807 117.255C78.135 117.238 86.1764 110.621 86.1764 100.785ZM74.4046 52.8528C78.5221 48.9817 80.7568 42.3655 80.7568 34.1304C80.7568 19.7719 73.6655 10.5691 62.8262 10.5691C54.8024 10.5691 47.887 16.0591 47.887 24.7693C47.887 36.7171 60.5915 44.6354 74.4046 52.8528Z" fill="#24B6BC"/>
</svg>
